<?xml version="1.0" standalone="no"?>
<!DOCTYPE svg PUBLIC "-//W3C//DTD SVG 20010904//EN"
 "http://www.w3.org/TR/2001/REC-SVG-20010904/DTD/svg10.dtd">
<svg version="1.0" xmlns="http://www.w3.org/2000/svg"
 width="1280.000000pt" height="1280.000000pt" viewBox="0 0 1280.000000 1280.000000"
 preserveAspectRatio="xMidYMid meet">

<g transform="translate(0.000000,1280.000000) scale(0.100000,-0.100000)"
fill="#000000" stroke="none">
<path d="M0 6400 l0 -6400 6400 0 6400 0 0 6400 0 6400 -6400 0 -6400 0 0
-6400z m12002 2662 c76 -31 147 -96 188 -174 34 -63 34 -63 42 -253 5 -104 7
-224 6 -265 l-3 -75 -1055 -5 c-1150 -6 -1102 -4 -1315 -65 -317 -92 -607
-294 -941 -657 -144 -156 -1033 -1186 -1041 -1205 -2 -6 201 -257 452 -558
325 -388 464 -562 483 -603 21 -46 26 -71 26 -132 -1 -89 -18 -133 -77 -197
-103 -113 -257 -124 -383 -28 -17 13 -225 256 -463 539 -238 284 -436 516
-439 515 -4 0 -173 -194 -377 -431 -465 -541 -500 -579 -567 -608 -173 -75
-365 38 -393 231 -8 54 15 155 46 205 11 19 220 266 465 550 392 456 443 519
430 533 -84 97 -559 669 -563 677 -2 7 80 116 183 243 153 190 189 230 200
219 7 -7 139 -166 294 -353 155 -187 285 -340 290 -340 10 0 531 607 695 810
289 358 460 532 631 642 15 9 -912 12 -4114 12 -3813 1 -4133 2 -4139 17 -3 9
-2 130 3 268 10 246 11 252 38 304 55 107 148 180 256 201 26 5 2440 8 5565 7
l5520 -1 57 -23z m-7646 -1077 c27 -12 68 -40 90 -61 22 -21 230 -256 463
-521 233 -266 426 -483 430 -483 4 0 191 222 415 494 223 272 421 507 439 522
75 64 172 86 262 59 78 -22 164 -105 190 -184 22 -67 17 -167 -12 -231 -11
-26 -209 -275 -457 -578 -241 -293 -436 -537 -434 -542 2 -5 134 -159 293
-341 160 -182 289 -337 289 -344 -1 -14 -363 -445 -373 -444 -3 0 -139 151
-301 335 -276 313 -296 333 -311 316 -36 -38 -523 -638 -644 -792 -264 -338
-427 -514 -579 -626 l-68 -49 4094 -5 4093 -5 3 -75 c1 -41 -1 -161 -6 -265
-8 -190 -8 -190 -42 -253 -41 -78 -112 -143 -188 -174 l-57 -23 -5545 0 -5545
0 -57 23 c-75 31 -147 96 -189 174 l-33 63 -10 251 c-5 138 -6 259 -3 268 6
15 92 16 1024 16 596 0 1057 4 1113 10 424 44 752 213 1111 573 154 155 261
278 752 875 l398 483 -473 540 c-263 300 -484 560 -497 587 -33 65 -41 183
-16 249 22 57 85 128 138 155 80 41 156 42 243 3z m-1634 -4 c351 -60 680
-247 906 -514 499 -589 495 -1424 -11 -2008 -210 -243 -506 -416 -838 -491
-91 -20 -131 -23 -314 -23 -232 0 -294 9 -481 70 -246 81 -496 246 -667 442
-361 414 -476 973 -307 1484 84 254 205 446 402 635 232 223 504 358 823 409
126 20 354 18 487 -4z m8045 -10 c571 -126 1019 -550 1168 -1103 142 -526 -6
-1084 -390 -1473 -212 -215 -475 -359 -776 -427 -91 -20 -131 -23 -314 -23
-183 0 -223 3 -314 23 -585 131 -1037 571 -1176 1144 -180 743 222 1508 940
1787 204 79 339 102 585 96 138 -2 209 -9 277 -24z"/>
<path d="M2350 7429 c-418 -50 -763 -381 -836 -803 -31 -173 -5 -374 69 -545
119 -276 379 -488 682 -557 123 -28 311 -24 439 10 335 88 589 334 693 673 25
81 27 101 27 263 0 162 -2 182 -27 263 -91 297 -297 524 -577 636 -137 54
-323 78 -470 60z"/>
<path d="M10345 7430 c-105 -13 -190 -38 -294 -86 -267 -125 -455 -349 -532
-634 -34 -124 -34 -357 -1 -480 96 -352 365 -615 719 -702 131 -32 322 -30
456 5 339 90 608 357 699 697 33 123 33 357 0 479 -81 297 -293 539 -572 654
-143 59 -327 85 -475 67z"/>
</g>
</svg>
